<svg id="svg" version="1.1" xmlns="http://www.w3.org/2000/svg" xmlns:xlink="http://www.w3.org/1999/xlink" width="400" height="400" viewBox="0, 0, 400,400"><g id="svgg"><path id="path0" d="M82.812 85.248 C 34.972 120.041,34.932 117.610,83.932 152.576 C 132.098 186.946,131.250 186.825,131.250 159.375 L 131.250 137.500 173.438 137.569 C 264.506 137.717,306.250 161.432,306.250 213.019 C 306.250 280.947,278.520 296.041,148.438 298.920 L 50.000 301.098 50.000 319.299 L 50.000 337.500 157.910 337.500 C 299.735 337.500,341.049 315.956,348.530 238.097 C 357.869 140.902,313.011 100.000,197.076 100.000 L 131.250 100.000 131.250 78.125 C 131.250 50.662,130.145 50.825,82.812 85.248 " stroke="none" fill="#000000" fill-rule="evenodd"></path></g></svg>